<svg width="716" height="625" viewBox="0 0 716 625" fill="none" xmlns="http://www.w3.org/2000/svg">
<path d="M-0.46461 257.971C-7.89062 245.843 -5.07843 230.115 0.0166593 219L-0.46461 257.971C7.69905 271.303 28.2359 280.284 71.7153 274C175.503 259 249.708 -21.4999 428.203 2.00005C570.998 20.8001 679.566 253.167 716 367V625H-4.99725L-0.46461 257.971Z" fill="#120548"/>
<path d="M-1.46614 297.695C-8.89215 287.343 -6.07996 273.917 -0.984876 264.429L-1.46614 297.695C6.6975 309.076 27.2343 316.742 70.7136 311.378C174.501 298.574 248.706 59.1326 427.2 79.1927C569.996 95.2409 678.563 293.594 714.997 390.765V611H-5.99878L-1.46614 297.695Z" fill="#0E023D"/>
</svg>
