<svg width="11" height="11" viewBox="0 0 11 11" fill="none" xmlns="http://www.w3.org/2000/svg">
<path d="M10.811 5.26102C10.7888 5.23289 10.2558 4.56429 9.34208 3.89299C8.12107 2.9959 6.79248 2.52173 5.49996 2.52173C4.2075 2.52173 2.87891 2.9959 1.65784 3.89299C0.744122 4.56426 0.211141 5.23289 0.188914 5.26102L0 5.49995L0.188938 5.7389C0.211165 5.76703 0.744146 6.43566 1.65787 7.10696C2.87893 8.00402 4.20752 8.47819 5.49999 8.47819C6.79248 8.47819 8.12107 8.00402 9.34208 7.10696C10.2558 6.43566 10.7888 5.76703 10.811 5.7389L11 5.49995L10.811 5.26102ZM5.49996 7.58636C4.34953 7.58636 3.41355 6.65041 3.41355 5.49995C3.41355 5.3197 3.43653 5.14473 3.4797 4.97778L3.00336 4.89761C2.95669 5.09086 2.93194 5.29256 2.93194 5.49995C2.93194 6.24308 3.24937 6.9134 3.7556 7.38276C3.10395 7.14204 2.54982 6.80426 2.13161 6.49877C1.61349 6.12034 1.22518 5.7376 1.00381 5.49995C1.22528 5.26222 1.61354 4.87953 2.13161 4.50112C2.54982 4.19563 3.10397 3.85785 3.7556 3.61712L4.07515 3.97732C4.44835 3.62786 4.94957 3.41354 5.49996 3.41354C6.6504 3.41354 7.58635 4.34949 7.58635 5.49995C7.58635 6.65041 6.6504 7.58636 5.49996 7.58636ZM8.86832 6.49877C8.45006 6.80426 7.89596 7.14204 7.24433 7.38276C7.75053 6.91342 8.06797 6.24311 8.06797 5.49992C8.06797 4.75674 7.75053 4.08645 7.24433 3.61709C7.89598 3.85783 8.45006 4.19561 8.86832 4.5011C9.38644 4.87953 9.77474 5.26227 9.99612 5.4999C9.77465 5.73767 9.38639 6.12039 8.86832 6.49877Z" fill="white"/>
<path d="M4.17225 5.09429C4.13309 5.22262 4.11188 5.35875 4.11188 5.49988C4.11188 6.26647 4.73333 6.88795 5.49995 6.88795C6.26653 6.88795 6.88799 6.2665 6.88799 5.49988C6.88799 4.73327 6.26653 4.11182 5.49995 4.11182C5.12655 4.11182 4.78785 4.25953 4.53835 4.49937L5.22302 5.27112L4.17225 5.09429Z" fill="white"/>
</svg>
