<svg width="694" height="479" viewBox="0 0 694 479" fill="none" xmlns="http://www.w3.org/2000/svg">
<circle cx="520" cy="392" r="82" fill="#B2ADC6"/>
<rect x="103" y="115" width="355" height="327" rx="20" fill="#DAE1F2"/>
<circle cx="87" cy="87" r="87" fill="#D3A01C" fill-opacity="0.26"/>
<path d="M70.4706 376L115.045 453.206H25.8957L70.4706 376Z" fill="#D3A01C" fill-opacity="0.26"/>
<line x1="70.5" y1="290" x2="70.5" y2="377" stroke="#F4E6C4"/>
<g clip-path="url(#clip0)">
<g opacity="0.37">
<g opacity="0.37">
<g opacity="0.37">
<path opacity="0.37" d="M673.532 92.931H637.795C636.458 92.9296 635.177 92.3993 634.232 91.4563C633.287 90.5134 632.755 89.235 632.754 87.9015V65.8634C632.755 64.5299 633.287 63.2514 634.232 62.3085C635.177 61.3656 636.458 60.8352 637.795 60.8338H673.532C674.868 60.8352 676.15 61.3656 677.095 62.3085C678.04 63.2514 678.571 64.5299 678.573 65.8634V87.9069C678.571 89.2404 678.04 90.5188 677.095 91.4618C676.15 92.4047 674.868 92.935 673.532 92.9365V92.931ZM637.795 63.0295C637.043 63.0309 636.322 63.3301 635.79 63.8614C635.259 64.3927 634.96 65.1127 634.96 65.8634V87.9069C634.962 88.6566 635.261 89.3752 635.792 89.9053C636.323 90.4355 637.044 90.7339 637.795 90.7353H673.532C674.283 90.7339 675.003 90.4355 675.535 89.9053C676.066 89.3752 676.365 88.6566 676.367 87.9069V65.8634C676.367 65.1127 676.068 64.3927 675.537 63.8614C675.005 63.3301 674.284 63.0309 673.532 63.0295H637.795Z" fill="#C2F9FF"/>
</g>
</g>
</g>
<g opacity="0.37">
<g opacity="0.37">
<path opacity="0.37" d="M662.805 67.129L661.249 68.6811V68.6865L668.702 76.1227L670.264 74.5652L662.81 67.129H662.805Z" fill="#C2F9FF"/>
<path opacity="0.37" d="M668.702 67.129L661.249 74.5652L662.81 76.1227L670.264 68.6865V68.6811L668.702 67.129Z" fill="#C2F9FF"/>
</g>
</g>
<path d="M284.947 248.34V75.6585C284.949 70.4452 287.025 65.4458 290.72 61.7594C294.415 58.0731 299.425 56.0014 304.651 56L292.455 56C287.229 56 282.217 58.0712 278.522 61.7579C274.827 65.4445 272.751 70.4448 272.751 75.6585V248.34C272.751 253.554 274.827 258.554 278.522 262.241C282.217 265.928 287.229 267.999 292.455 267.999H304.651C299.425 267.997 294.415 265.926 290.72 262.239C287.025 258.553 284.949 253.553 284.947 248.34Z" fill="#435BA2"/>
<path d="M592.648 267.999H295.642C291.901 267.989 288.316 266.499 285.674 263.856C283.032 261.213 281.549 257.632 281.549 253.9V70.099C281.549 66.3663 283.032 62.7858 285.674 60.1429C288.316 57.4999 291.901 56.01 295.642 56H592.648C596.395 56.0014 599.988 57.4875 602.637 60.1314C605.286 62.7753 606.774 66.3606 606.774 70.099V253.9C606.774 257.638 605.286 261.223 602.637 263.867C599.988 266.511 596.395 267.997 592.648 267.999Z" fill="#4285F4"/>
<path d="M599.077 176.698H524.102V175.438H597.814V83.1321H633.117V84.3922H599.077V176.698Z" fill="#EFF2F9"/>
<path d="M498.458 158.603H481.02L479.069 155.358H467.252V178.24C467.252 179.018 467.562 179.763 468.113 180.313C468.664 180.863 469.411 181.171 470.19 181.171H498.458C499.237 181.171 499.984 180.863 500.535 180.313C501.086 179.763 501.396 179.018 501.396 178.24V161.534C501.396 160.757 501.086 160.012 500.535 159.462C499.984 158.912 499.237 158.603 498.458 158.603ZM504.008 157.002C502.981 157.002 501.977 156.699 501.123 156.129C500.269 155.56 499.604 154.751 499.211 153.804C498.818 152.857 498.715 151.816 498.915 150.811C499.116 149.806 499.61 148.883 500.336 148.158C501.063 147.433 501.988 146.94 502.995 146.74C504.002 146.54 505.046 146.643 505.995 147.035C506.944 147.427 507.755 148.091 508.326 148.943C508.896 149.795 509.201 150.797 509.201 151.821C509.199 153.195 508.652 154.512 507.678 155.483C506.705 156.455 505.385 157.001 504.008 157.002ZM504.008 147.587C503.167 147.587 502.346 147.836 501.647 148.302C500.948 148.768 500.403 149.431 500.082 150.206C499.76 150.981 499.676 151.833 499.841 152.656C500.005 153.479 500.41 154.234 501.005 154.827C501.6 155.42 502.358 155.823 503.182 155.986C504.007 156.149 504.862 156.064 505.638 155.743C506.415 155.421 507.078 154.877 507.544 154.179C508.011 153.481 508.259 152.66 508.258 151.821C508.256 150.698 507.808 149.621 507.011 148.827C506.214 148.033 505.134 147.587 504.008 147.587Z" fill="#2466C6"/>
<path d="M501.646 153.532L505.712 149.467L506.384 150.135L502.318 154.201L501.646 153.532Z" fill="#2466C6"/>
<path d="M501.643 150.132L502.314 149.462L506.384 153.524L505.713 154.193L501.643 150.132Z" fill="#2466C6"/>
<path d="M400.327 169.452C398.808 169.453 397.324 169.005 396.061 168.164C394.798 167.323 393.813 166.127 393.232 164.728C392.65 163.329 392.497 161.789 392.793 160.303C393.088 158.817 393.819 157.452 394.892 156.381C395.965 155.309 397.333 154.579 398.822 154.283C400.311 153.987 401.854 154.139 403.257 154.718C404.66 155.298 405.859 156.279 406.703 157.539C407.546 158.798 407.997 160.279 407.997 161.794C407.995 163.823 407.187 165.77 405.749 167.205C404.311 168.641 402.361 169.449 400.327 169.452ZM400.327 155.391C399.06 155.395 397.822 155.774 396.771 156.479C395.719 157.184 394.901 158.185 394.418 159.354C393.936 160.523 393.812 161.808 394.061 163.048C394.311 164.287 394.923 165.425 395.82 166.318C396.717 167.211 397.859 167.818 399.102 168.064C400.345 168.31 401.633 168.183 402.803 167.699C403.974 167.215 404.975 166.395 405.679 165.344C406.383 164.294 406.76 163.058 406.761 161.794C406.758 160.099 406.082 158.475 404.881 157.277C403.68 156.079 402.052 155.404 400.354 155.401" fill="#00C2E3"/>
<path d="M400.327 176.7C397.371 176.701 394.482 175.827 392.025 174.19C389.568 172.553 387.652 170.225 386.521 167.501C385.389 164.777 385.093 161.78 385.669 158.888C386.245 155.997 387.668 153.34 389.758 151.256C391.847 149.171 394.51 147.751 397.408 147.176C400.306 146.601 403.31 146.897 406.04 148.026C408.77 149.154 411.103 151.066 412.744 153.518C414.385 155.969 415.261 158.852 415.26 161.8C415.255 165.75 413.681 169.538 410.881 172.331C408.082 175.124 404.286 176.695 400.327 176.7ZM400.327 148.156C397.622 148.156 394.978 148.956 392.729 150.455C390.48 151.954 388.727 154.085 387.692 156.579C386.657 159.072 386.386 161.815 386.914 164.462C387.441 167.109 388.744 169.54 390.656 171.449C392.569 173.357 395.006 174.656 397.659 175.183C400.311 175.709 403.061 175.439 405.56 174.406C408.059 173.374 410.195 171.625 411.697 169.381C413.2 167.137 414.002 164.499 414.002 161.8C413.999 158.182 412.558 154.713 409.994 152.155C407.429 149.597 403.953 148.158 400.327 148.156Z" fill="#00C2E3"/>
<path d="M400.326 185.297C395.667 185.298 391.112 183.921 387.237 181.339C383.362 178.757 380.342 175.086 378.558 170.792C376.775 166.497 376.307 161.771 377.216 157.211C378.124 152.652 380.367 148.463 383.661 145.176C386.956 141.888 391.153 139.649 395.723 138.742C400.293 137.834 405.03 138.299 409.334 140.078C413.639 141.857 417.319 144.87 419.907 148.735C422.496 152.6 423.878 157.145 423.878 161.793C423.871 168.024 421.387 173.997 416.972 178.403C412.557 182.809 406.571 185.289 400.326 185.297ZM400.326 139.555C395.916 139.554 391.605 140.858 387.938 143.302C384.271 145.745 381.413 149.219 379.725 153.284C378.037 157.349 377.595 161.822 378.455 166.137C379.315 170.452 381.438 174.416 384.556 177.527C387.675 180.639 391.648 182.757 395.973 183.615C400.298 184.473 404.781 184.032 408.855 182.348C412.929 180.664 416.411 177.812 418.86 174.153C421.309 170.495 422.616 166.193 422.615 161.793C422.609 155.897 420.259 150.244 416.08 146.075C411.902 141.906 406.236 139.561 400.326 139.555Z" fill="#00C2E3"/>
<path d="M393.611 289.436H384.049V288.808H393.611C395.308 288.806 396.934 288.132 398.134 286.935C399.334 285.737 400.009 284.115 400.012 282.421V190.586H400.641V282.421C400.641 284.286 399.899 286.074 398.577 287.393C397.256 288.711 395.463 289.452 393.595 289.452" fill="#EFF2F9"/>
<path d="M400.327 188.725C399.956 188.724 399.594 188.833 399.286 189.037C398.977 189.242 398.737 189.533 398.595 189.875C398.452 190.216 398.415 190.591 398.487 190.954C398.559 191.316 398.737 191.649 398.999 191.91C399.261 192.172 399.594 192.349 399.958 192.421C400.321 192.493 400.697 192.456 401.039 192.314C401.381 192.172 401.673 191.932 401.878 191.624C402.083 191.317 402.192 190.955 402.191 190.586C402.19 190.093 401.993 189.62 401.644 189.272C401.294 188.923 400.821 188.727 400.327 188.725ZM386.163 289.122C386.164 289.491 386.055 289.853 385.85 290.16C385.645 290.468 385.353 290.708 385.011 290.85C384.669 290.992 384.293 291.029 383.929 290.957C383.566 290.886 383.233 290.708 382.971 290.447C382.709 290.185 382.531 289.852 382.459 289.49C382.387 289.127 382.424 288.752 382.566 288.411C382.709 288.07 382.949 287.778 383.257 287.574C383.566 287.369 383.928 287.26 384.298 287.261C384.793 287.261 385.267 287.457 385.617 287.806C385.967 288.155 386.163 288.628 386.163 289.122Z" fill="#EFF2F9"/>
<path d="M295.425 84.9596H399.334V88.3126H295.425V84.9596ZM404.511 84.9596H408.023V88.3126H404.511V84.9596Z" fill="#DAE1F2"/>
<path d="M410.36 236.048H428.339V239.687H410.36V236.048ZM410.36 242.364H442.188V246.004H410.36V242.364ZM410.36 248.676H434.665V252.315H410.36V248.676ZM410.36 254.992H422.924V258.632H410.36V254.992Z" fill="#2466C6"/>
<path d="M334.062 109.476L341.829 105.485V106.637L335.287 109.909V109.942L341.829 113.213V114.365L334.062 110.38V109.476ZM342.913 115.031L347.58 102.933H348.719L344.035 115.031H342.913ZM357.538 110.39L349.775 114.365V113.213L356.367 109.942V109.909L349.775 106.637V105.485L357.538 109.46V110.39Z" fill="#EFF2F9"/>
<g opacity="0.57">
<g opacity="0.57">
<g opacity="0.57">
<path opacity="0.57" d="M270.415 272.947H261.867C261.58 272.947 261.304 273.061 261.101 273.264C260.897 273.467 260.783 273.742 260.783 274.029V276.652C260.783 276.938 260.897 277.214 261.101 277.416C261.304 277.619 261.58 277.733 261.867 277.733H270.415C270.703 277.733 270.979 277.619 271.182 277.416C271.385 277.214 271.499 276.938 271.499 276.652V274.056C271.499 273.769 271.385 273.494 271.182 273.291C270.979 273.088 270.703 272.974 270.415 272.974V272.947ZM287.392 281.395H261.867C261.58 281.395 261.304 281.508 261.101 281.711C260.897 281.914 260.783 282.189 260.783 282.476V285.072C260.783 285.359 260.897 285.634 261.101 285.837C261.304 286.04 261.58 286.154 261.867 286.154H287.392C287.68 286.154 287.955 286.04 288.159 285.837C288.362 285.634 288.476 285.359 288.476 285.072V282.476C288.476 282.189 288.362 281.914 288.159 281.711C287.955 281.508 287.68 281.395 287.392 281.395ZM287.392 289.842H261.867C261.58 289.842 261.304 289.956 261.101 290.159C260.897 290.362 260.783 290.637 260.783 290.924V293.52C260.783 293.806 260.897 294.082 261.101 294.284C261.304 294.487 261.58 294.601 261.867 294.601H287.392C287.68 294.601 287.955 294.487 288.159 294.284C288.362 294.082 288.476 293.806 288.476 293.52V290.924C288.476 290.637 288.362 290.362 288.159 290.159C287.955 289.956 287.68 289.842 287.392 289.842ZM296.683 289.842H292.932C292.644 289.842 292.368 289.956 292.165 290.159C291.962 290.362 291.848 290.637 291.848 290.924V293.52C291.848 293.806 291.962 294.082 292.165 294.284C292.368 294.487 292.644 294.601 292.932 294.601H296.672C296.959 294.601 297.235 294.487 297.438 294.284C297.642 294.082 297.756 293.806 297.756 293.52V290.924C297.756 290.637 297.642 290.362 297.438 290.159C297.235 289.956 296.959 289.842 296.672 289.842H296.683ZM283.392 298.284H261.873C261.585 298.284 261.309 298.398 261.106 298.601C260.903 298.804 260.789 299.079 260.789 299.366V301.962C260.789 302.248 260.903 302.524 261.106 302.726C261.309 302.929 261.585 303.043 261.873 303.043H283.392C283.679 303.043 283.955 302.929 284.158 302.726C284.362 302.524 284.476 302.248 284.476 301.962V299.366C284.476 299.079 284.362 298.804 284.158 298.601C283.955 298.398 283.679 298.284 283.392 298.284Z" fill="#DAE1F2"/>
</g>
</g>
</g>
<g opacity="0.6">
<g opacity="0.6">
<g opacity="0.6">
<path opacity="0.6" d="M466.22 124.305C464.239 124.313 462.26 124.152 460.306 123.824C456.149 123.094 453.764 121.704 453.764 120.006C453.764 117.183 460.03 115.706 466.231 115.706C472.432 115.706 478.698 117.183 478.698 120.006C478.698 121.704 476.313 123.099 472.155 123.824C470.203 124.152 468.227 124.313 466.247 124.305H466.22ZM466.247 116.961C459.309 116.961 455.054 118.735 455.054 120.006C455.054 120.806 456.94 121.953 460.55 122.58C464.319 123.199 468.164 123.199 471.933 122.58C475.543 121.953 477.429 120.806 477.429 120.006C477.429 118.735 473.174 116.961 466.242 116.961" fill="#EFF2F9"/>
<path opacity="0.6" d="M466.222 130.698C464.241 130.708 462.262 130.547 460.309 130.216C456.151 129.486 453.766 128.096 453.766 126.398V120H455.029C455.029 120.806 456.915 121.953 460.525 122.58C464.294 123.2 468.139 123.2 471.908 122.58C475.518 121.953 477.405 120.806 477.405 120H478.668V126.398C478.668 128.096 476.283 129.486 472.125 130.216C470.173 130.547 468.197 130.708 466.217 130.698H466.222ZM455.029 121.98V126.387C455.029 127.193 456.915 128.334 460.525 128.967C464.295 129.579 468.139 129.579 471.908 128.967C475.518 128.334 477.405 127.193 477.405 126.387V121.98C476.321 122.764 474.505 123.397 472.125 123.813C468.211 124.455 464.218 124.455 460.303 123.813C457.924 123.397 456.129 122.764 455.024 121.98" fill="#EFF2F9"/>
<path opacity="0.6" d="M466.222 137.09C464.259 137.098 462.299 136.94 460.363 136.619H460.314C456.151 135.895 453.766 134.505 453.766 132.801V126.398H455.029C455.029 127.198 456.915 128.345 460.525 128.978C464.294 129.597 468.139 129.597 471.908 128.978C475.518 128.345 477.405 127.198 477.405 126.398H478.668V132.796C478.668 134.499 476.283 135.889 472.125 136.614H472.066C470.133 136.935 468.176 137.092 466.217 137.084L466.222 137.09ZM460.471 135.354H460.525C464.295 135.967 468.139 135.967 471.908 135.354H471.968C475.54 134.721 477.388 133.585 477.388 132.785V128.377C476.304 129.161 474.488 129.794 472.109 130.211C468.194 130.852 464.201 130.852 460.287 130.211C457.907 129.794 456.113 129.161 455.007 128.377V132.796C455.007 133.596 456.878 134.732 460.455 135.365" fill="#EFF2F9"/>
<path opacity="0.6" d="M466.222 143.487C460.032 143.487 453.755 142.011 453.755 139.161V132.795H455.018C455.018 133.596 456.888 134.731 460.466 135.364H460.52C464.289 135.978 468.134 135.978 471.903 135.364H471.963C475.535 134.731 477.383 133.596 477.383 132.795H478.646V139.193C478.646 142.016 472.38 143.52 466.179 143.52L466.222 143.487ZM454.986 134.807V139.22C454.986 140.491 459.241 142.26 466.179 142.26C473.117 142.26 477.367 140.491 477.367 139.22V134.807C476.283 135.591 474.467 136.224 472.087 136.64H472.028C468.15 137.268 464.197 137.268 460.32 136.64H460.271C457.891 136.224 456.092 135.591 454.986 134.807Z" fill="#EFF2F9"/>
</g>
</g>
</g>
<g opacity="0.2">
<g opacity="0.2">
<g opacity="0.2">
<path opacity="0.2" d="M462.401 77.9572H460.656C460.51 76.5511 459.983 75.2114 459.129 74.0828C458.276 72.9543 457.13 72.0798 455.815 71.554C455.842 71.2241 455.859 70.8888 455.859 70.5481C455.82 67.7035 454.713 64.9769 452.757 62.9076C450.8 60.8382 448.137 59.5768 445.293 59.3729C442.449 59.169 439.632 60.0373 437.399 61.8062C435.166 63.5752 433.679 66.1158 433.234 68.9256C430.985 69.3459 428.916 70.4324 427.295 72.0434C425.675 73.6545 424.578 75.7153 424.149 77.9572H421.938C420.996 77.9572 420.093 78.3304 419.427 78.9947C418.761 79.659 418.387 80.56 418.387 81.4995C418.387 82.439 418.761 83.34 419.427 84.0043C420.093 84.6686 420.996 85.0418 421.938 85.0418H462.412C463.354 85.0418 464.257 84.6686 464.922 84.0043C465.588 83.34 465.962 82.439 465.962 81.4995C465.962 80.56 465.588 79.659 464.922 78.9947C464.257 78.3304 463.354 77.9572 462.412 77.9572" fill="white"/>
</g>
</g>
</g>
<path d="M465.941 108.999C465.57 108.998 465.208 109.106 464.9 109.311C464.591 109.516 464.351 109.807 464.209 110.148C464.066 110.489 464.029 110.865 464.101 111.227C464.173 111.59 464.351 111.923 464.613 112.184C464.875 112.445 465.208 112.623 465.572 112.695C465.935 112.767 466.311 112.729 466.653 112.587C466.995 112.446 467.287 112.206 467.492 111.898C467.697 111.59 467.806 111.229 467.805 110.859C467.804 110.366 467.607 109.894 467.258 109.545C466.908 109.197 466.435 109 465.941 108.999ZM441.701 88.3128C441.33 88.3128 440.969 88.4224 440.661 88.6276C440.353 88.8329 440.114 89.1246 439.972 89.4659C439.831 89.8071 439.794 90.1825 439.867 90.5446C439.939 90.9067 440.118 91.2391 440.38 91.4999C440.642 91.7606 440.976 91.9378 441.339 92.0092C441.702 92.0806 442.078 92.0429 442.42 91.9008C442.762 91.7588 443.053 91.5188 443.258 91.2113C443.463 90.9037 443.572 90.5425 443.571 90.1732C443.571 89.9284 443.522 89.6861 443.428 89.46C443.334 89.2339 443.196 89.0286 443.023 88.8558C442.849 88.683 442.643 88.546 442.416 88.4529C442.189 88.3597 441.946 88.3121 441.701 88.3128Z" fill="#EFF2F9"/>
<path d="M466.255 110.843H465.626V101.028H441.386V90.1735H442.015V100.395H466.255V110.843Z" fill="#EFF2F9"/>
<path d="M365.566 323.67H315.335C314 323.67 312.721 323.142 311.778 322.2C310.834 321.259 310.304 319.983 310.304 318.652V254.879C310.304 253.547 310.834 252.27 311.777 251.328C312.721 250.386 314 249.856 315.335 249.855H365.566C366.9 249.856 368.18 250.386 369.123 251.328C370.066 252.27 370.596 253.547 370.596 254.879V318.652C370.596 319.983 370.066 321.259 369.122 322.2C368.179 323.142 366.9 323.67 365.566 323.67Z" fill="#435BA2"/>
<path d="M370.899 323.67H320.7C320.04 323.671 319.385 323.542 318.775 323.29C318.164 323.038 317.609 322.668 317.142 322.202C316.675 321.736 316.304 321.182 316.052 320.573C315.799 319.964 315.669 319.311 315.67 318.652V254.879C315.669 254.219 315.799 253.566 316.052 252.957C316.304 252.347 316.674 251.793 317.142 251.327C317.609 250.86 318.163 250.49 318.774 250.237C319.385 249.985 320.039 249.855 320.7 249.855H370.899C372.234 249.855 373.515 250.384 374.459 251.326C375.404 252.269 375.934 253.547 375.934 254.879V318.652C375.934 319.311 375.804 319.964 375.551 320.574C375.298 321.183 374.927 321.736 374.459 322.202C373.991 322.668 373.436 323.038 372.825 323.29C372.215 323.542 371.56 323.671 370.899 323.67Z" fill="#DAE1F2"/>
<path d="M355.18 258.978H323.627C323.292 258.978 322.971 259.111 322.734 259.347C322.497 259.584 322.364 259.904 322.364 260.238V263.543C322.364 263.877 322.497 264.197 322.734 264.434C322.971 264.67 323.292 264.803 323.627 264.803H355.18C355.345 264.803 355.51 264.77 355.663 264.707C355.816 264.643 355.955 264.551 356.073 264.434C356.19 264.317 356.283 264.178 356.346 264.025C356.41 263.872 356.443 263.708 356.443 263.543V260.238C356.443 260.073 356.41 259.909 356.346 259.756C356.283 259.603 356.19 259.464 356.073 259.347C355.955 259.23 355.816 259.137 355.663 259.074C355.51 259.011 355.345 258.978 355.18 258.978ZM352.973 271.417H323.627C323.462 271.416 323.298 271.448 323.144 271.511C322.991 271.574 322.852 271.666 322.735 271.782C322.617 271.899 322.524 272.038 322.461 272.19C322.397 272.343 322.364 272.506 322.364 272.672V275.981C322.364 276.315 322.497 276.636 322.734 276.872C322.971 277.109 323.292 277.241 323.627 277.241H352.973C353.307 277.24 353.627 277.107 353.863 276.87C354.099 276.634 354.231 276.315 354.231 275.981V272.672C354.231 272.339 354.099 272.02 353.863 271.784C353.627 271.549 353.307 271.417 352.973 271.417ZM347.136 283.85H323.627C323.292 283.85 322.971 283.983 322.734 284.219C322.497 284.455 322.364 284.776 322.364 285.11V288.415C322.364 288.749 322.497 289.069 322.734 289.306C322.971 289.542 323.292 289.675 323.627 289.675H347.136C347.471 289.675 347.792 289.542 348.029 289.306C348.266 289.069 348.399 288.749 348.399 288.415V285.11C348.399 284.776 348.266 284.455 348.029 284.219C347.792 283.983 347.471 283.85 347.136 283.85ZM337.666 296.283H323.627C323.292 296.283 322.971 296.416 322.734 296.652C322.497 296.889 322.364 297.209 322.364 297.543V300.848C322.364 301.182 322.497 301.503 322.734 301.739C322.971 301.975 323.292 302.108 323.627 302.108H337.666C338.001 302.108 338.322 301.975 338.559 301.739C338.796 301.503 338.929 301.182 338.929 300.848V297.543C338.929 297.209 338.796 296.889 338.559 296.652C338.322 296.416 338.001 296.283 337.666 296.283ZM355.18 308.722H323.627C323.462 308.721 323.298 308.753 323.144 308.816C322.991 308.879 322.852 308.971 322.735 309.088C322.617 309.204 322.524 309.343 322.461 309.495C322.397 309.648 322.364 309.812 322.364 309.977V313.287C322.364 313.621 322.497 313.941 322.734 314.178C322.971 314.414 323.292 314.547 323.627 314.547H355.18C355.345 314.547 355.51 314.514 355.663 314.451C355.816 314.387 355.955 314.295 356.073 314.178C356.19 314.061 356.283 313.922 356.346 313.769C356.41 313.616 356.443 313.452 356.443 313.287V309.977C356.443 309.812 356.41 309.648 356.346 309.495C356.283 309.343 356.19 309.204 356.072 309.088C355.955 308.971 355.816 308.879 355.662 308.816C355.509 308.753 355.345 308.721 355.18 308.722Z" fill="#609AEF"/>
<path d="M333.243 157.159H333.91V228.416H333.243V157.159Z" fill="#EFF2F9"/>
<path d="M342.171 151.244H324.988C324.611 151.244 324.25 151.393 323.984 151.659C323.717 151.924 323.568 152.285 323.568 152.661V158.253C323.568 158.628 323.717 158.989 323.984 159.255C324.25 159.52 324.611 159.67 324.988 159.67H342.171C342.547 159.668 342.907 159.518 343.173 159.253C343.439 158.988 343.589 158.628 343.591 158.253V152.661C343.589 152.285 343.439 151.926 343.173 151.66C342.907 151.395 342.547 151.245 342.171 151.244ZM342.171 226.173H324.988C324.611 226.173 324.25 226.323 323.984 226.588C323.717 226.854 323.568 227.214 323.568 227.59V233.177C323.568 233.553 323.717 233.913 323.984 234.179C324.25 234.444 324.611 234.594 324.988 234.594H342.171C342.547 234.594 342.909 234.444 343.175 234.179C343.441 233.913 343.591 233.553 343.591 233.177V227.59C343.591 227.214 343.441 226.854 343.175 226.588C342.909 226.323 342.547 226.173 342.171 226.173Z" fill="#609AEF"/>
<path d="M342.171 200.755H324.988C324.611 200.755 324.25 200.904 323.984 201.17C323.717 201.436 323.568 201.796 323.568 202.172V207.764C323.568 208.14 323.717 208.5 323.984 208.766C324.25 209.031 324.611 209.181 324.988 209.181H342.171C342.547 209.179 342.907 209.03 343.173 208.764C343.439 208.499 343.589 208.139 343.591 207.764V202.172C343.589 201.796 343.439 201.437 343.173 201.171C342.907 200.906 342.547 200.756 342.171 200.755Z" fill="#DAE1F2"/>
<path d="M360.194 220.066H333.579V219.407H359.532V178.883H315.871V178.224H360.194V220.066Z" fill="#EFF2F9"/>
<path d="M367.235 174.942H352.491C352.168 174.942 351.858 175.07 351.629 175.298C351.4 175.527 351.272 175.836 351.272 176.159V180.929C351.272 181.252 351.4 181.561 351.629 181.789C351.858 182.017 352.168 182.146 352.491 182.146H367.235C367.558 182.146 367.869 182.017 368.097 181.789C368.326 181.561 368.454 181.252 368.454 180.929V176.137C368.454 175.815 368.326 175.505 368.097 175.277C367.869 175.049 367.558 174.92 367.235 174.92V174.942ZM318.272 174.942H303.529C303.205 174.942 302.895 175.07 302.666 175.298C302.438 175.527 302.309 175.836 302.309 176.159V180.929C302.308 181.089 302.339 181.247 302.4 181.395C302.462 181.543 302.551 181.678 302.665 181.791C302.778 181.904 302.913 181.994 303.061 182.055C303.209 182.115 303.368 182.146 303.529 182.146H318.272C318.596 182.146 318.906 182.017 319.135 181.789C319.363 181.561 319.492 181.252 319.492 180.929V176.137C319.492 175.815 319.363 175.505 319.135 175.277C318.906 175.049 318.596 174.92 318.272 174.92" fill="#DAE1F2"/>
<path d="M324.996 178.563L333.577 170.001L342.159 178.563L333.577 187.126L324.996 178.563Z" fill="#2466C6"/>
<path d="M284.638 136.987H235.031C233.711 136.987 232.445 136.464 231.512 135.533C230.579 134.602 230.055 133.339 230.055 132.022V68.9798C230.056 67.664 230.581 66.4026 231.514 65.4727C232.447 64.5429 233.712 64.0205 235.031 64.0205H284.638C285.957 64.0205 287.222 64.5429 288.155 65.4727C289.088 66.4026 289.613 67.664 289.614 68.9798V132.022C289.614 133.339 289.09 134.602 288.157 135.533C287.224 136.464 285.958 136.987 284.638 136.987Z" fill="#F2F2F2"/>
<path d="M234.733 75.254V130.092C234.733 130.69 234.97 131.262 235.393 131.685C235.816 132.108 236.389 132.346 236.988 132.348H282.676C283.276 132.348 283.851 132.11 284.275 131.687C284.699 131.264 284.937 130.691 284.937 130.092V75.254H234.733Z" fill="#5F6368"/>
<path d="M241.319 69.9647C241.319 70.3925 241.192 70.8108 240.953 71.1665C240.715 71.5223 240.376 71.7995 239.98 71.9633C239.584 72.127 239.148 72.1698 238.728 72.0864C238.307 72.0029 237.921 71.7969 237.617 71.4943C237.314 71.1918 237.108 70.8063 237.024 70.3867C236.94 69.9671 236.983 69.5321 237.147 69.1368C237.312 68.7416 237.589 68.4037 237.946 68.166C238.303 67.9283 238.722 67.8014 239.151 67.8014C239.726 67.8014 240.277 68.0293 240.684 68.435C241.09 68.8407 241.319 69.3909 241.319 69.9647Z" fill="#4285F4"/>
<g opacity="0.7">
<g opacity="0.7">
<g opacity="0.7">
<path opacity="0.7" d="M248.723 69.9647C248.723 70.3925 248.596 70.8108 248.357 71.1665C248.119 71.5223 247.78 71.7995 247.384 71.9633C246.988 72.127 246.552 72.1698 246.132 72.0864C245.711 72.0029 245.325 71.7969 245.021 71.4943C244.718 71.1918 244.512 70.8063 244.428 70.3867C244.344 69.9671 244.387 69.5321 244.551 69.1368C244.716 68.7416 244.993 68.4037 245.35 68.166C245.707 67.9283 246.126 67.8014 246.555 67.8014C247.13 67.8014 247.681 68.0293 248.088 68.435C248.494 68.8407 248.723 69.3909 248.723 69.9647Z" fill="#4285F4"/>
</g>
</g>
</g>
<g opacity="0.4">
<g opacity="0.4">
<g opacity="0.4">
<path opacity="0.4" d="M256.133 69.9647C256.133 70.3925 256.006 70.8108 255.767 71.1665C255.529 71.5223 255.19 71.7995 254.794 71.9633C254.398 72.127 253.962 72.1698 253.542 72.0864C253.121 72.0029 252.735 71.7969 252.431 71.4943C252.128 71.1918 251.922 70.8063 251.838 70.3867C251.754 69.9671 251.797 69.5321 251.961 69.1368C252.126 68.7416 252.403 68.4037 252.76 68.166C253.117 67.9283 253.536 67.8014 253.965 67.8014C254.54 67.8014 255.091 68.0293 255.498 68.435C255.904 68.8407 256.133 69.3909 256.133 69.9647Z" fill="#4285F4"/>
</g>
</g>
</g>
<path d="M239.02 81.6514H251.27V84.5556H239.02V81.6514ZM239.02 87.5625H265.098V90.4667H239.02V87.5625Z" fill="#A9D1FC"/>
<path d="M268.225 87.5617H278.502V90.4659H268.225V87.5617Z" fill="#C9C9C9"/>
<path d="M239.02 93.472H246.544V96.3762H239.02V93.472Z" fill="#C6C6C6"/>
<path d="M249.818 93.472H258.339V96.3762H249.818V93.472Z" fill="#4A95ED"/>
<path d="M259.835 93.472H275.879V96.3762H259.835V93.472Z" fill="#A9D1FC"/>
<path d="M239.02 99.3776H251.27V102.282H239.02V99.3776Z" fill="#7F7F7F"/>
<path d="M245.931 105.285H252.728V108.189H245.931V105.285Z" fill="#A9D1FC"/>
<path d="M254.788 105.285H270.084V108.189H254.788V105.285Z" fill="#4A95ED"/>
<path d="M272.767 105.285H279.646V108.189H272.767V105.285Z" fill="#C9C9C9"/>
<path d="M245.931 111.196H256.132V114.1H245.931V111.196Z" fill="#C6C6C6"/>
<path d="M257.493 111.196H261.51V114.1H257.493V111.196Z" fill="#C9C9C9"/>
<path d="M263.618 111.196H271.537V114.1H263.618V111.196ZM273.678 111.196H278.741V114.1H273.678V111.196ZM245.931 117.107H252.728V120.011H245.931V117.107Z" fill="#A9D1FC"/>
<path d="M254.94 117.106H261.737V120.01H254.94V117.106Z" fill="#C6C6C6"/>
<path d="M239.02 123.011H251.27V125.916H239.02V123.011Z" fill="#7F7F7F"/>
<path d="M296.048 72.7113L300.862 70.2398V70.9536L296.807 72.9817V73.0033L300.862 75.0314V75.7452L296.048 73.2683V72.7113ZM302.304 68.3956H303.23V71.5215C303.382 71.2501 303.608 71.027 303.881 70.8779C304.164 70.7133 304.485 70.624 304.813 70.6183C305.491 70.6183 306.569 71.0348 306.569 72.7816V75.7615H305.67V72.8681C305.67 72.0569 305.366 71.3755 304.504 71.3755C304.23 71.3816 303.965 71.473 303.745 71.6369C303.526 71.8007 303.363 72.0288 303.279 72.2895C303.232 72.4286 303.212 72.5754 303.22 72.7221V75.7452H302.304V68.3956ZM309.122 69.2933V70.7319H310.429V71.4296H309.122V74.1336C309.122 74.7556 309.301 75.1071 309.805 75.1071C309.988 75.1119 310.17 75.0919 310.347 75.0476L310.391 75.729C310.13 75.8211 309.854 75.8633 309.578 75.8534C309.395 75.8634 309.213 75.8343 309.043 75.768C308.873 75.7018 308.719 75.6 308.591 75.4694C308.315 75.0939 308.19 74.6291 308.239 74.1661V71.462H307.464V70.7319H308.239V69.5205L309.122 69.2933ZM311.459 72.0894C311.459 71.5756 311.459 71.1483 311.415 70.7319H312.212L312.255 71.5431H312.288C312.436 71.2546 312.663 71.0134 312.941 70.8471C313.22 70.6807 313.54 70.5958 313.865 70.6021C314.178 70.5993 314.484 70.695 314.739 70.8756C314.994 71.0562 315.185 71.3125 315.285 71.608C315.418 71.356 315.603 71.1349 315.827 70.9591C316.145 70.7152 316.538 70.589 316.939 70.6021C317.605 70.6021 318.565 71.0402 318.565 72.7654V75.7128H317.67V72.9114C317.67 71.9433 317.318 71.3647 316.586 71.3647C316.342 71.3738 316.107 71.4582 315.912 71.6064C315.718 71.7546 315.575 71.9592 315.502 72.1921C315.452 72.3403 315.427 72.4955 315.426 72.6518V75.7452H314.613V72.7654C314.613 71.965 314.261 71.3863 313.562 71.3863C313.307 71.4034 313.063 71.4982 312.863 71.6577C312.664 71.8172 312.518 72.0339 312.445 72.2786C312.392 72.4203 312.366 72.5708 312.369 72.7221V75.7452H311.48L311.459 72.0894ZM320.11 68.3956H321.026V75.7452H320.11V68.3956ZM327.303 73.2791L322.489 75.7452V75.0314L326.576 73.0033V72.9817L322.489 70.9536V70.2344L327.303 72.7005V73.2791Z" fill="#EFF2F9"/>
<path d="M436.925 309.782C436.925 309.29 436.894 308.799 436.833 308.311L439.147 304.644L436.318 299.777L431.982 299.945C431.194 299.35 430.337 298.854 429.429 298.468L427.407 294.639H421.743L419.721 298.468C418.815 298.844 417.958 299.327 417.168 299.907L412.831 299.739L410.002 304.606L412.316 308.273C412.194 309.25 412.194 310.238 412.316 311.215L410.013 314.92L412.842 319.787L417.179 319.619C417.967 320.213 418.824 320.709 419.732 321.096L421.753 324.925H427.412L429.44 321.096C430.346 320.709 431.201 320.213 431.987 319.619L436.323 319.787L439.153 314.92L436.833 311.264C436.894 310.776 436.925 310.285 436.925 309.793V309.782ZM424.572 317.424C423.06 317.421 421.584 316.971 420.328 316.131C419.073 315.291 418.095 314.098 417.519 312.704C416.942 311.31 416.792 309.777 417.088 308.298C417.384 306.819 418.113 305.461 419.182 304.395C420.251 303.329 421.613 302.603 423.096 302.309C424.578 302.014 426.115 302.165 427.511 302.741C428.908 303.318 430.102 304.294 430.943 305.547C431.784 306.8 432.234 308.274 432.236 309.782C432.234 311.805 431.427 313.744 429.993 315.175C428.559 316.605 426.616 317.41 424.588 317.413" fill="#4285F4"/>
<g opacity="0.57">
<g opacity="0.57">
<g opacity="0.57">
<path opacity="0.57" d="M460.39 291.616C460.128 291.354 459.849 291.108 459.556 290.881L458.829 287.696L454.71 286.614L452.482 289.015C451.739 289.116 451.011 289.307 450.314 289.583L447.186 288.62L444.172 291.633L445.137 294.748C444.87 295.444 444.688 296.171 444.595 296.911L442.189 299.134L443.273 303.244L446.465 303.974C446.696 304.264 446.942 304.542 447.202 304.807C447.466 305.066 447.745 305.31 448.037 305.537L448.764 308.728L452.883 309.809L455.111 307.414C455.854 307.308 456.581 307.115 457.279 306.84L460.407 307.803L463.42 304.796L462.456 301.676C462.731 300.979 462.924 300.253 463.03 299.512L465.431 297.29L464.347 293.179L461.155 292.455C460.927 292.162 460.68 291.884 460.417 291.622L460.39 291.616ZM457.908 302.26C457.103 303.066 456.076 303.616 454.958 303.84C453.84 304.064 452.68 303.952 451.625 303.517C450.571 303.083 449.67 302.346 449.035 301.4C448.401 300.454 448.063 299.342 448.063 298.204C448.063 297.065 448.401 295.953 449.035 295.007C449.67 294.061 450.571 293.324 451.625 292.89C452.68 292.455 453.84 292.343 454.958 292.567C456.076 292.791 457.103 293.341 457.908 294.147C458.982 295.225 459.584 296.684 459.584 298.204C459.584 299.723 458.982 301.182 457.908 302.26Z" fill="#DAE1F2"/>
</g>
</g>
</g>
<path d="M587.992 69.1751C587.728 68.9141 587.45 68.6686 587.157 68.4396L586.431 65.2542L582.312 64.1726L580.084 66.5738C579.342 66.6665 578.614 66.848 577.916 67.1146L574.793 66.1574L571.774 69.1643L572.745 72.2848C572.464 72.9793 572.271 73.7059 572.17 74.448L569.769 76.6708L570.853 80.7809L574.045 81.5056C574.502 82.0913 575.03 82.6181 575.617 83.074L576.344 86.2648L580.463 87.3464L582.691 84.9452C583.433 84.8525 584.161 84.6709 584.859 84.4044L587.987 85.367L591.001 82.3601L590.036 79.2396C590.314 78.5443 590.507 77.8179 590.61 77.0764L593.011 74.8536L591.927 70.7435L588.735 70.0188C588.507 69.7261 588.26 69.4479 587.998 69.1859L587.992 69.1751ZM585.483 79.7967C584.677 80.605 583.65 81.1566 582.53 81.3816C581.41 81.6066 580.249 81.4947 579.193 81.0602C578.137 80.6258 577.234 79.8883 576.599 78.9412C575.963 77.9941 575.624 76.8802 575.624 75.7406C575.624 74.6009 575.963 73.487 576.599 72.5399C577.234 71.5929 578.137 70.8554 579.193 70.4209C580.249 69.9864 581.41 69.8746 582.53 70.0995C583.65 70.3245 584.677 70.8761 585.483 71.6845C586.555 72.7632 587.157 74.2211 587.157 75.7406C587.157 77.26 586.555 78.7179 585.483 79.7967Z" fill="#EFF2F9"/>
<path d="M660.154 188.606H668.171V193.739H660.154V188.606Z" fill="#A9D1FC"/>
<path d="M610.113 282.352H537.23V280.151H610.113C613.807 280.146 617.349 278.68 619.961 276.073C622.572 273.466 624.041 269.932 624.044 266.246V247.788C624.048 243.517 625.75 239.421 628.778 236.401C631.805 233.381 635.91 231.682 640.191 231.678H652.913C655.603 231.675 658.182 230.607 660.085 228.709C661.987 226.811 663.057 224.238 663.06 221.554V191.171H665.271V221.554C665.267 224.822 663.963 227.956 661.647 230.268C659.33 232.579 656.189 233.88 652.913 233.884H640.191C636.496 233.887 632.953 235.353 630.34 237.96C627.727 240.567 626.258 244.102 626.255 247.788V266.246C626.251 270.516 624.549 274.61 621.522 277.63C618.496 280.649 614.393 282.347 610.113 282.352Z" fill="#EFF2F9"/>
<path d="M583.352 291.556H539.018C537.841 291.556 536.712 291.089 535.879 290.258C535.047 289.428 534.579 288.301 534.579 287.127V230.833C534.579 229.659 535.047 228.532 535.879 227.701C536.712 226.871 537.841 226.404 539.018 226.404H583.33C583.913 226.404 584.491 226.519 585.029 226.741C585.568 226.964 586.057 227.29 586.469 227.701C586.882 228.113 587.209 228.601 587.432 229.138C587.655 229.676 587.77 230.252 587.77 230.833V287.127C587.77 287.708 587.655 288.284 587.432 288.822C587.209 289.359 586.882 289.847 586.469 290.258C586.057 290.67 585.568 290.996 585.029 291.219C584.491 291.441 583.913 291.556 583.33 291.556" fill="#E2E8F7"/>
<path d="M538.775 236.421V285.375C538.775 285.909 538.987 286.42 539.365 286.798C539.744 287.175 540.256 287.387 540.791 287.387H581.596C581.861 287.388 582.124 287.336 582.369 287.235C582.614 287.134 582.836 286.986 583.023 286.799C583.211 286.612 583.359 286.39 583.46 286.146C583.562 285.901 583.613 285.64 583.612 285.375V236.421H538.775Z" fill="#5F6368"/>
<path d="M545.946 263.359C545.893 263.359 545.842 263.343 545.8 263.311C545.758 263.28 545.727 263.236 545.713 263.185C545.704 263.155 545.701 263.122 545.704 263.09C545.708 263.058 545.718 263.027 545.734 262.999C545.749 262.971 545.77 262.946 545.796 262.926C545.821 262.906 545.85 262.891 545.881 262.883C547.751 262.374 549.366 260.795 550.678 258.194C551.007 257.525 551.32 256.849 551.616 256.166C552.217 254.635 553.001 253.182 553.952 251.839C555.394 249.973 557.941 248.432 560.391 249.189C561.784 249.627 562.977 250.725 564.039 252.558C564.316 253.034 564.581 253.527 564.814 254.002C565.277 254.972 565.834 255.894 566.479 256.755C567.362 257.837 568.869 258.918 570.473 258.691C571.98 258.459 572.978 257.242 574.035 255.96C574.929 254.879 575.85 253.743 577.135 253.191C577.165 253.178 577.196 253.172 577.229 253.171C577.261 253.171 577.293 253.176 577.323 253.188C577.353 253.2 577.38 253.218 577.403 253.24C577.426 253.262 577.445 253.289 577.458 253.318C577.47 253.348 577.477 253.38 577.478 253.412C577.478 253.444 577.473 253.476 577.461 253.506C577.449 253.535 577.431 253.563 577.409 253.586C577.386 253.609 577.36 253.627 577.33 253.64C576.154 254.143 575.265 255.219 574.409 256.263C573.324 257.566 572.24 258.913 570.549 259.167C568.744 259.443 567.064 258.264 566.099 257.058C565.434 256.173 564.858 255.223 564.381 254.224C564.142 253.754 563.888 253.262 563.622 252.802C562.619 251.077 561.519 250.049 560.245 249.654C558.023 248.962 555.676 250.401 554.342 252.137C553.414 253.444 552.647 254.858 552.06 256.35C551.757 257.026 551.448 257.723 551.112 258.399C549.735 261.103 548.017 262.785 546.011 263.337H545.946" fill="#4A95ED"/>
<path d="M545.946 263.359C545.893 263.359 545.842 263.343 545.8 263.311C545.758 263.28 545.727 263.236 545.713 263.185C545.704 263.155 545.701 263.122 545.704 263.09C545.708 263.058 545.718 263.027 545.734 262.999C545.749 262.971 545.77 262.946 545.796 262.926C545.821 262.906 545.85 262.891 545.881 262.883C547.751 262.374 549.366 260.795 550.678 258.194C551.007 257.525 551.32 256.849 551.616 256.166C552.217 254.635 553.001 253.182 553.952 251.839C555.394 249.973 557.941 248.432 560.391 249.189C561.784 249.627 562.977 250.725 564.039 252.558C564.316 253.034 564.581 253.527 564.814 254.002C565.277 254.972 565.834 255.894 566.479 256.755C567.362 257.837 568.869 258.918 570.473 258.691C571.98 258.459 572.978 257.242 574.035 255.96C574.929 254.879 575.85 253.743 577.135 253.191C577.165 253.178 577.196 253.172 577.229 253.171C577.261 253.171 577.293 253.176 577.323 253.188C577.353 253.2 577.38 253.218 577.403 253.24C577.426 253.262 577.445 253.289 577.458 253.318C577.47 253.348 577.477 253.38 577.478 253.412C577.478 253.444 577.473 253.476 577.461 253.506C577.449 253.535 577.431 253.563 577.409 253.586C577.386 253.609 577.36 253.627 577.33 253.64C576.154 254.143 575.265 255.219 574.409 256.263C573.324 257.566 572.24 258.913 570.549 259.167C568.744 259.443 567.064 258.264 566.099 257.058C565.434 256.173 564.858 255.223 564.381 254.224C564.142 253.754 563.888 253.262 563.622 252.802C562.619 251.077 561.519 250.049 560.245 249.654C558.023 248.962 555.676 250.401 554.342 252.137C553.414 253.444 552.647 254.858 552.06 256.35C551.757 257.026 551.448 257.723 551.112 258.399C549.735 261.103 548.017 262.785 546.011 263.337L545.946 263.359Z" fill="black"/>
<path d="M580.046 267.906H542.347V243.056H543.073V267.182H580.046V267.906ZM542.71 272.152H552.087V274.839H542.71V272.152Z" fill="#DAE1F2"/>
<path d="M553.99 272.153H563.367V274.841H553.99V272.153Z" fill="#A9D1FC"/>
<path d="M565.416 272.153H570.105V274.841H565.416V272.153Z" fill="#7F7F7F"/>
<path d="M542.71 275.889H552.087V278.577H542.71V275.889Z" fill="#DAE1F2"/>
<path d="M553.99 275.889H563.367V278.577H553.99V275.889Z" fill="#4A95ED"/>
<path d="M565.416 275.889H570.105V278.577H565.416V275.889Z" fill="#7F7F7F"/>
<path d="M542.71 279.632H552.087V282.32H542.71V279.632Z" fill="#DAE1F2"/>
<path d="M553.99 279.632H563.367V282.32H553.99V279.632Z" fill="#A9D1FC"/>
<path d="M565.416 279.632H570.105V282.32H565.416V279.632Z" fill="#7F7F7F"/>
<path d="M501.265 244.202C501.265 244.63 501.138 245.048 500.9 245.404C500.662 245.76 500.323 246.037 499.927 246.201C499.531 246.364 499.095 246.407 498.674 246.324C498.254 246.24 497.867 246.034 497.564 245.732C497.261 245.429 497.054 245.044 496.971 244.624C496.887 244.204 496.93 243.77 497.094 243.374C497.258 242.979 497.536 242.641 497.893 242.403C498.249 242.166 498.668 242.039 499.097 242.039C499.672 242.039 500.224 242.267 500.63 242.672C501.037 243.078 501.265 243.628 501.265 244.202Z" fill="#4285F4"/>
<g opacity="0.7">
<g opacity="0.7">
<g opacity="0.7">
<path opacity="0.7" d="M508.665 244.202C508.665 244.63 508.537 245.048 508.299 245.404C508.061 245.76 507.722 246.037 507.326 246.201C506.93 246.364 506.494 246.407 506.073 246.324C505.653 246.24 505.267 246.034 504.963 245.732C504.66 245.429 504.454 245.044 504.37 244.624C504.286 244.204 504.329 243.77 504.493 243.374C504.657 242.979 504.935 242.641 505.292 242.403C505.648 242.166 506.068 242.039 506.496 242.039C507.071 242.039 507.623 242.267 508.03 242.672C508.436 243.078 508.665 243.628 508.665 244.202Z" fill="#4285F4"/>
</g>
</g>
</g>
<g opacity="0.4">
<g opacity="0.4">
<g opacity="0.4">
<path opacity="0.4" d="M516.079 244.202C516.079 244.63 515.952 245.048 515.714 245.404C515.476 245.76 515.137 246.037 514.741 246.201C514.345 246.364 513.909 246.407 513.488 246.324C513.068 246.24 512.681 246.034 512.378 245.732C512.075 245.429 511.868 245.044 511.785 244.624C511.701 244.204 511.744 243.77 511.908 243.374C512.072 242.979 512.35 242.641 512.707 242.403C513.063 242.166 513.482 242.039 513.911 242.039C514.486 242.039 515.038 242.267 515.444 242.672C515.851 243.078 516.079 243.628 516.079 244.202Z" fill="#4285F4"/>
</g>
</g>
</g>
<path d="M457.572 208.51C455.5 208.512 453.511 207.697 452.038 206.244L422.355 177.089C420.878 175.62 420.042 173.628 420.032 171.548C420.022 169.467 420.837 167.467 422.3 165.984C423.763 164.502 425.755 163.657 427.84 163.635C429.926 163.613 431.935 164.415 433.429 165.867L463.133 195.027C464.25 196.125 465.013 197.53 465.326 199.063C465.639 200.595 465.488 202.186 464.891 203.632C464.295 205.079 463.28 206.315 461.976 207.184C460.673 208.052 459.139 208.514 457.572 208.51Z" fill="#D1B380"/>
<path d="M457.566 208.509C456.106 208.508 454.675 208.103 453.432 207.34C452.189 206.577 451.182 205.484 450.523 204.185C449.865 202.885 449.58 201.428 449.701 199.977C449.822 198.525 450.343 197.135 451.208 195.962L459.561 184.659C460.804 182.978 462.665 181.858 464.735 181.546C466.805 181.235 468.915 181.756 470.6 182.996C472.284 184.236 473.407 186.093 473.719 188.158C474.032 190.224 473.509 192.329 472.266 194.01L463.908 205.313C463.176 206.304 462.22 207.11 461.119 207.665C460.017 208.22 458.8 208.509 457.566 208.509Z" fill="#D1B380"/>
<path d="M476.348 189.338C476.348 191.394 475.737 193.404 474.592 195.113C473.447 196.822 471.82 198.155 469.916 198.941C468.013 199.728 465.918 199.934 463.897 199.533C461.876 199.132 460.02 198.142 458.563 196.688C457.106 195.234 456.114 193.382 455.712 191.366C455.31 189.35 455.516 187.26 456.305 185.36C457.093 183.461 458.428 181.838 460.142 180.696C461.855 179.553 463.869 178.944 465.93 178.944C468.693 178.944 471.342 180.039 473.296 181.988C475.25 183.938 476.348 186.581 476.348 189.338Z" fill="white"/>
<path d="M465.924 197.211C464.461 197.209 463.028 196.801 461.784 196.033C460.54 195.265 459.534 194.167 458.878 192.862C458.223 191.557 457.944 190.096 458.072 188.642C458.2 187.188 458.731 185.798 459.604 184.627L482.484 154.011C483.081 153.128 483.852 152.374 484.75 151.796C485.648 151.219 486.655 150.829 487.708 150.651C488.762 150.473 489.84 150.51 490.879 150.76C491.918 151.011 492.895 151.469 493.751 152.107C494.606 152.745 495.324 153.55 495.859 154.473C496.393 155.396 496.735 156.417 496.862 157.476C496.99 158.534 496.9 159.607 496.6 160.63C496.299 161.653 495.793 162.605 495.113 163.427L472.234 194.042C471.5 195.027 470.545 195.827 469.446 196.378C468.346 196.928 467.133 197.214 465.903 197.211" fill="#D1D5E5"/>
<path d="M479.584 230.922L480.028 364.957H497.59L502.707 232.479L479.584 230.922Z" fill="#2F324C"/>
<path d="M497.59 378.001H464.466V374.312C464.466 371.831 465.454 369.451 467.213 367.697C468.971 365.942 471.356 364.956 473.843 364.956H497.59V378.001Z" fill="#7A3B25"/>
<path d="M526.768 166.072V226.719H478.641V166.072C478.641 163.7 479.109 161.352 480.018 159.161C480.928 156.971 482.261 154.98 483.942 153.303C485.622 151.626 487.617 150.296 489.813 149.389C492.009 148.481 494.363 148.014 496.739 148.014H508.664C513.464 148.014 518.068 149.917 521.462 153.303C524.856 156.69 526.763 161.283 526.763 166.072" fill="white"/>
<path d="M513.001 151.724C513.002 153.961 512.338 156.149 511.093 158.009C509.848 159.869 508.078 161.32 506.006 162.176C503.935 163.033 501.656 163.257 499.457 162.821C497.258 162.385 495.238 161.308 493.652 159.726C492.067 158.144 490.987 156.129 490.55 153.935C490.113 151.74 490.338 149.466 491.196 147.4C492.055 145.333 493.508 143.567 495.373 142.325C497.238 141.083 499.43 140.42 501.672 140.421C504.676 140.423 507.557 141.614 509.681 143.734C511.805 145.853 512.999 148.727 513.001 151.724Z" fill="#D1D5E5"/>
<path d="M502.442 162.366L507.613 165.243C508.219 165.58 508.904 165.747 509.597 165.729C510.289 165.711 510.965 165.508 511.552 165.14C512.139 164.773 512.616 164.255 512.934 163.64C513.252 163.026 513.399 162.337 513.359 161.647C513.05 156.444 512.687 150.29 512.687 150.409C512.687 150.625 502.442 162.366 502.442 162.366ZM500.946 162.366L495.775 165.243C495.169 165.58 494.484 165.747 493.791 165.729C493.099 165.711 492.423 165.508 491.836 165.14C491.249 164.773 490.772 164.255 490.454 163.64C490.136 163.026 489.989 162.337 490.029 161.647C490.338 156.444 490.701 150.29 490.701 150.409C490.701 150.625 500.946 162.366 500.946 162.366Z" fill="#D1D5E5"/>
<path d="M492.159 121.265V149.56C492.159 152.119 493.178 154.573 494.992 156.382C496.805 158.192 499.265 159.208 501.829 159.208C504.394 159.208 506.854 158.192 508.667 156.382C510.481 154.573 511.499 152.119 511.499 149.56V121.276L492.159 121.265Z" fill="#D1B380"/>
<path d="M470.374 105.694H485.98V124.725H481.562C478.594 124.725 475.746 123.549 473.647 121.454C471.548 119.36 470.369 116.52 470.369 113.558L470.374 105.694Z" fill="#D8B368"/>
<path d="M485.98 140.627H471.008V133.705C471.008 132.583 471.455 131.507 472.25 130.714C473.045 129.921 474.123 129.475 475.247 129.475H485.98V140.627Z" fill="#60554D"/>
<path d="M472.06 107.454V131.682C472.06 135.17 473.449 138.516 475.921 140.982C478.393 143.449 481.746 144.834 485.243 144.834H510.865V107.454C510.865 105.149 509.948 102.939 508.316 101.308C506.684 99.6776 504.469 98.7601 502.16 98.7572H480.776C478.464 98.7572 476.248 99.6734 474.613 101.304C472.978 102.935 472.06 105.147 472.06 107.454Z" fill="#D1B380"/>
<path d="M503.06 95.5989H509.678C511.055 95.5989 512.376 96.1447 513.35 97.1164C514.324 98.088 514.871 99.4058 514.871 100.78V135.635C514.871 136.122 514.677 136.588 514.333 136.932C513.988 137.275 513.521 137.469 513.034 137.469H509.695C507.935 137.469 506.247 136.771 505.003 135.53C503.759 134.288 503.06 132.605 503.06 130.849V95.5989Z" fill="#60554D"/>
<path d="M496.734 102.543H510.231V128.421H496.734V102.543Z" fill="#60554D"/>
<path d="M500.951 121.476C499.699 121.475 498.474 121.845 497.432 122.538C496.39 123.232 495.578 124.218 495.098 125.372C494.618 126.526 494.492 127.796 494.735 129.022C494.979 130.248 495.582 131.374 496.467 132.258C497.352 133.142 498.48 133.744 499.708 133.988C500.937 134.232 502.21 134.107 503.367 133.629C504.524 133.151 505.513 132.342 506.209 131.303C506.905 130.264 507.277 129.042 507.277 127.793C507.277 126.119 506.61 124.513 505.424 123.328C504.238 122.144 502.629 121.478 500.951 121.476Z" fill="#D1B380"/>
<path d="M493.85 147.988H477.047C475.443 147.988 473.904 147.352 472.77 146.22C471.635 145.088 470.998 143.553 470.998 141.952V134.478C470.998 133.598 471.348 132.753 471.973 132.13C472.597 131.508 473.443 131.158 474.326 131.158H493.839C495.444 131.158 496.982 131.794 498.117 132.926C499.251 134.057 499.889 135.593 499.889 137.193V141.952C499.889 143.553 499.251 145.088 498.117 146.22C496.982 147.352 495.444 147.988 493.839 147.988" fill="#60554D"/>
<path d="M486.489 143.358H478.359C478.003 143.358 477.65 143.288 477.321 143.152C476.993 143.016 476.694 142.817 476.442 142.566C476.19 142.315 475.991 142.017 475.855 141.688C475.718 141.36 475.648 141.009 475.648 140.654V137.831C475.648 137.113 475.934 136.426 476.442 135.919C476.95 135.411 477.64 135.127 478.359 135.127H486.489C487.208 135.127 487.897 135.411 488.406 135.919C488.914 136.426 489.199 137.113 489.199 137.831V140.654C489.199 141.009 489.129 141.36 488.993 141.688C488.857 142.017 488.657 142.315 488.406 142.566C488.154 142.817 487.855 143.016 487.526 143.152C487.198 143.288 486.845 143.358 486.489 143.358Z" fill="#D1B380"/>
<path d="M492.729 103.802V104.311C493.95 105.094 494.956 106.171 495.652 107.443C496.348 108.715 496.712 110.141 496.712 111.59C496.712 113.039 496.348 114.465 495.652 115.737C494.956 117.009 493.95 118.086 492.729 118.87V137.89H498.003V103.819L492.729 103.802Z" fill="#60554D"/>
<path d="M471.431 95.5989H506.859V107.8H471.431V95.5989Z" fill="#60554D"/>
<path d="M471.432 107.803C468.478 107.803 459.198 97.9119 471.009 88.6532C470.797 91.6006 473.963 93.2825 475.226 93.7044C473.974 91.8115 473.752 85.9221 481.562 82.7637C481.351 86.7603 484.939 91.3897 487.048 92.4443C487.048 90.9679 488.311 87.577 494.002 86.9713C494.002 89.7078 495.693 93.2825 505.602 96.6518C505.179 101.698 473.762 104.856 473.762 104.856L471.432 107.803Z" fill="#60554D"/>
<path d="M526.769 224.047V229.871C526.817 233.054 526.23 236.215 525.042 239.17C523.854 242.125 522.089 244.815 519.85 247.083C517.61 249.351 514.941 251.152 511.998 252.381C509.055 253.61 505.896 254.244 502.705 254.244C499.514 254.244 496.355 253.61 493.412 252.381C490.468 251.152 487.799 249.351 485.56 247.083C483.321 244.815 481.556 242.125 480.368 239.17C479.18 236.215 478.593 233.054 478.641 229.871V224.047H526.769Z" fill="#404263"/>
<path d="M503.06 230.812L508.6 364.956H526.162V230.812H503.06Z" fill="#404263"/>
<path d="M526.161 378.001H493.037V374.312C493.037 371.831 494.025 369.451 495.784 367.697C497.542 365.942 499.927 364.956 502.414 364.956H526.161V378.001Z" fill="#964D2D"/>
<path d="M408.327 168.446C408.327 162.643 414.083 157.943 421.184 157.943C428.285 157.943 434.041 162.643 434.041 168.446C434.041 174.249 428.285 178.943 421.184 178.943C414.083 178.943 408.327 174.243 408.327 168.446Z" fill="#D1B380"/>
<path d="M419.666 165.968H404.104C403.072 165.968 402.082 165.559 401.352 164.831C400.622 164.103 400.212 163.115 400.212 162.085C400.212 161.055 400.622 160.068 401.352 159.339C402.082 158.611 403.072 158.202 404.104 158.202H419.666C420.699 158.202 421.688 158.611 422.418 159.339C423.148 160.068 423.558 161.055 423.558 162.085C423.558 163.115 423.148 164.103 422.418 164.831C421.688 165.559 420.699 165.968 419.666 165.968Z" fill="#D1B380"/>
<path d="M531.631 199.098C529.953 199.097 528.32 198.563 526.967 197.573C525.614 196.583 524.613 195.189 524.107 193.593L513.966 161.566C513.335 159.574 513.524 157.415 514.489 155.562C515.455 153.709 517.119 152.314 519.115 151.685C521.111 151.056 523.276 151.244 525.133 152.208C526.99 153.171 528.388 154.832 529.018 156.823L539.16 188.85C539.538 190.032 539.631 191.286 539.431 192.51C539.232 193.735 538.745 194.895 538.012 195.896C537.278 196.898 536.317 197.712 535.209 198.273C534.1 198.834 532.874 199.126 531.631 199.126" fill="#D1D5E5"/>
<path d="M542.049 191.204C542.049 193.26 541.438 195.27 540.293 196.979C539.148 198.689 537.52 200.021 535.616 200.807C533.712 201.594 531.617 201.8 529.596 201.398C527.575 200.996 525.719 200.006 524.262 198.552C522.805 197.098 521.814 195.245 521.412 193.228C521.011 191.212 521.218 189.121 522.007 187.222C522.797 185.323 524.133 183.7 525.847 182.558C527.561 181.417 529.575 180.808 531.636 180.809C534.398 180.811 537.047 181.906 538.999 183.856C540.952 185.805 542.049 188.448 542.049 191.204Z" fill="white"/>
<path d="M535.273 211.959C533.556 211.956 531.886 211.395 530.517 210.361C529.148 209.326 528.153 207.875 527.685 206.227L524.557 195.172C524.229 194.165 524.108 193.101 524.202 192.046C524.295 190.991 524.601 189.965 525.102 189.03C525.602 188.096 526.286 187.272 527.113 186.607C527.94 185.943 528.893 185.452 529.915 185.163C530.937 184.875 532.006 184.795 533.06 184.929C534.113 185.063 535.129 185.407 536.046 185.942C536.962 186.477 537.762 187.19 538.395 188.04C539.029 188.89 539.484 189.859 539.734 190.889L542.867 201.943C543.438 203.955 543.185 206.111 542.164 207.936C541.142 209.762 539.436 211.108 537.42 211.678C536.714 211.876 535.984 211.976 535.251 211.975" fill="#D1B380"/>
<path d="M519.186 213.291C517.15 213.289 515.194 212.502 513.726 211.095C512.258 209.687 511.392 207.768 511.308 205.739C511.225 203.709 511.931 201.726 513.279 200.204C514.627 198.682 516.512 197.738 518.54 197.57L534.623 196.239C535.676 196.112 536.744 196.199 537.764 196.494C538.783 196.788 539.732 197.285 540.554 197.954C541.377 198.622 542.056 199.45 542.55 200.387C543.045 201.323 543.345 202.35 543.433 203.405C543.521 204.46 543.394 205.522 543.062 206.527C542.729 207.532 542.196 208.46 541.496 209.255C540.795 210.05 539.941 210.696 538.985 211.155C538.028 211.613 536.989 211.874 535.929 211.923L519.847 213.253H519.186" fill="#D1B380"/>
<path d="M503.038 204.75C503.038 199.786 509.179 195.762 516.746 195.762C524.313 195.762 530.46 199.786 530.46 204.75C530.46 209.715 524.318 213.733 516.746 213.733C509.174 213.733 503.038 209.71 503.038 204.75Z" fill="#D1B380"/>
<path d="M520.79 177.023H484.815C484.502 176.977 484.182 177.007 483.882 177.11C483.382 177.283 482.97 177.647 482.739 178.123C482.507 178.598 482.474 179.146 482.647 179.646L490.306 201.765C490.442 202.158 490.698 202.497 491.037 202.738C491.376 202.978 491.781 203.107 492.197 203.107C492.419 203.108 492.639 203.071 492.848 202.999H529.392L520.79 177.023Z" fill="#646884"/>
<path d="M528.72 203.101C528.304 203.101 527.898 202.972 527.559 202.732C527.22 202.491 526.965 202.152 526.828 201.76L519.169 179.64C519.084 179.392 519.048 179.129 519.065 178.867C519.081 178.604 519.149 178.348 519.265 178.112C519.381 177.876 519.542 177.665 519.739 177.491C519.937 177.317 520.167 177.184 520.416 177.098C520.665 177.013 520.928 176.978 521.191 176.994C521.454 177.011 521.711 177.078 521.948 177.194C522.184 177.309 522.396 177.47 522.57 177.667C522.744 177.864 522.878 178.094 522.963 178.342L530.622 200.456C530.728 200.758 530.759 201.08 530.713 201.396C530.667 201.712 530.546 202.012 530.359 202.271C530.173 202.53 529.926 202.741 529.641 202.886C529.356 203.03 529.04 203.104 528.72 203.101Z" fill="#505372"/>
<path d="M530.454 204.88H490.479C490.246 204.881 490.015 204.836 489.8 204.747C489.584 204.658 489.389 204.528 489.224 204.364C489.059 204.199 488.929 204.004 488.84 203.789C488.751 203.574 488.706 203.344 488.706 203.112V201.722C488.706 201.49 488.752 201.26 488.841 201.046C488.93 200.832 489.061 200.637 489.226 200.473C489.39 200.309 489.586 200.18 489.801 200.091C490.016 200.003 490.246 199.958 490.479 199.959H530.454C530.924 199.959 531.374 200.144 531.706 200.475C532.038 200.805 532.225 201.254 532.227 201.722V203.101C532.227 203.57 532.04 204.02 531.708 204.351C531.375 204.683 530.924 204.869 530.454 204.869" fill="#D1D5E5"/>
<path d="M540.341 204.88H529.213C528.743 204.88 528.292 204.694 527.96 204.362C527.627 204.031 527.441 203.581 527.441 203.112V201.722C527.442 201.254 527.63 200.805 527.962 200.475C528.294 200.144 528.744 199.959 529.213 199.959H540.341C540.81 199.959 541.259 200.144 541.591 200.475C541.922 200.806 542.108 201.254 542.108 201.722V203.101C542.109 203.333 542.064 203.563 541.975 203.777C541.887 203.992 541.757 204.187 541.593 204.351C541.429 204.515 541.233 204.646 541.019 204.735C540.804 204.824 540.574 204.869 540.341 204.869" fill="#A8AFC6"/>
<path d="M506.285 190.056C506.285 190.6 506.123 191.131 505.821 191.583C505.518 192.034 505.088 192.386 504.585 192.594C504.082 192.802 503.528 192.857 502.994 192.751C502.46 192.645 501.969 192.383 501.584 191.999C501.199 191.615 500.937 191.125 500.83 190.592C500.724 190.059 500.779 189.507 500.987 189.005C501.196 188.503 501.549 188.074 502.001 187.772C502.454 187.47 502.987 187.309 503.531 187.309C503.893 187.308 504.251 187.379 504.586 187.517C504.92 187.654 505.224 187.857 505.48 188.112C505.736 188.367 505.938 188.67 506.077 189.004C506.215 189.338 506.285 189.695 506.285 190.056ZM539.642 203.101H537.138C536.939 203.101 536.749 203.022 536.609 202.882C536.469 202.742 536.39 202.552 536.39 202.354C536.39 202.156 536.469 201.967 536.609 201.827C536.749 201.687 536.939 201.608 537.138 201.608H539.642C539.84 201.608 540.031 201.687 540.171 201.827C540.311 201.967 540.39 202.156 540.39 202.354C540.39 202.552 540.311 202.742 540.171 202.882C540.031 203.022 539.84 203.101 539.642 203.101ZM534.14 203.101H531.636C531.438 203.101 531.247 203.022 531.107 202.882C530.967 202.742 530.888 202.552 530.888 202.354C530.888 202.156 530.967 201.967 531.107 201.827C531.247 201.687 531.438 201.608 531.636 201.608H534.14C534.339 201.608 534.529 201.687 534.669 201.827C534.809 201.967 534.888 202.156 534.888 202.354C534.888 202.552 534.809 202.742 534.669 202.882C534.529 203.022 534.339 203.101 534.14 203.101Z" fill="#505372"/>
<path d="M478.641 225.746H526.768V229.872H478.641V225.746Z" fill="#964D2D"/>
<path d="M491.628 224.047H501.19V230.926H491.628V224.047Z" fill="#EFF1F9"/>
<path d="M504.593 224.712H507.705V232.143H504.593V224.712ZM485.031 224.712H488.142V232.143H485.031V224.712ZM516.751 224.712H519.863V232.143H516.751V224.712Z" fill="#404263"/>
<path d="M688.969 188.585H639.362C638.708 188.586 638.061 188.458 637.458 188.209C636.854 187.96 636.305 187.595 635.843 187.135C635.381 186.674 635.015 186.127 634.764 185.525C634.514 184.923 634.386 184.278 634.386 183.626V120.6C634.386 119.283 634.91 118.02 635.843 117.089C636.776 116.158 638.042 115.635 639.362 115.635H688.969C690.289 115.635 691.555 116.158 692.488 117.089C693.421 118.02 693.945 119.283 693.945 120.6V183.631C693.945 184.283 693.816 184.928 693.566 185.53C693.316 186.132 692.95 186.679 692.487 187.14C692.025 187.601 691.477 187.966 690.873 188.215C690.269 188.464 689.622 188.591 688.969 188.591" fill="#F2F2F2"/>
<path d="M639.064 126.847V181.669C639.064 182.267 639.302 182.841 639.726 183.264C640.149 183.687 640.724 183.924 641.324 183.924H686.996C687.596 183.924 688.171 183.687 688.595 183.264C689.018 182.841 689.257 182.267 689.257 181.669V126.847H639.064Z" fill="#5F6368"/>
<path d="M645.649 121.562C645.649 121.99 645.522 122.409 645.284 122.764C645.045 123.12 644.707 123.397 644.311 123.561C643.914 123.725 643.478 123.768 643.058 123.684C642.637 123.601 642.251 123.395 641.948 123.092C641.644 122.79 641.438 122.404 641.354 121.984C641.271 121.565 641.314 121.13 641.478 120.735C641.642 120.339 641.92 120.001 642.276 119.764C642.633 119.526 643.052 119.399 643.481 119.399C644.056 119.399 644.607 119.627 645.014 120.033C645.421 120.438 645.649 120.989 645.649 121.562Z" fill="#4285F4"/>
<g opacity="0.7">
<g opacity="0.7">
<g opacity="0.7">
<path opacity="0.7" d="M653.059 121.562C653.059 121.99 652.932 122.409 652.694 122.764C652.455 123.12 652.117 123.397 651.72 123.561C651.324 123.725 650.888 123.768 650.468 123.684C650.047 123.601 649.661 123.395 649.358 123.092C649.054 122.79 648.848 122.404 648.764 121.984C648.681 121.565 648.724 121.13 648.888 120.735C649.052 120.339 649.33 120.001 649.686 119.764C650.043 119.526 650.462 119.399 650.891 119.399C651.466 119.399 652.017 119.627 652.424 120.033C652.831 120.438 653.059 120.989 653.059 121.562Z" fill="#4285F4"/>
</g>
</g>
</g>
<g opacity="0.4">
<g opacity="0.4">
<g opacity="0.4">
<path opacity="0.4" d="M660.463 121.562C660.463 121.99 660.336 122.409 660.098 122.764C659.859 123.12 659.521 123.397 659.125 123.561C658.728 123.725 658.292 123.768 657.872 123.684C657.451 123.601 657.065 123.395 656.762 123.092C656.458 122.79 656.252 122.404 656.168 121.984C656.085 121.565 656.128 121.13 656.292 120.735C656.456 120.339 656.734 120.001 657.09 119.764C657.447 119.526 657.866 119.399 658.295 119.399C658.87 119.399 659.421 119.627 659.828 120.033C660.234 120.438 660.463 120.989 660.463 121.562Z" fill="#4285F4"/>
</g>
</g>
</g>
<path d="M643.351 133.254H655.601V136.158H643.351V133.254ZM643.351 139.165H669.429V142.069H643.351V139.165Z" fill="#A9D1FC"/>
<path d="M672.556 139.167H682.833V142.071H672.556V139.167Z" fill="#C9C9C9"/>
<path d="M643.351 145.072H650.874V147.976H643.351V145.072Z" fill="#C6C6C6"/>
<path d="M654.148 145.072H662.669V147.976H654.148V145.072Z" fill="#4A95ED"/>
<path d="M664.165 145.072H680.21V147.976H664.165V145.072Z" fill="#A9D1FC"/>
<path d="M643.351 150.982H655.601V153.887H643.351V150.982Z" fill="#7F7F7F"/>
<path d="M650.262 156.888H657.059V159.792H650.262V156.888Z" fill="#A9D1FC"/>
<path d="M659.119 156.888H674.415V159.792H659.119V156.888Z" fill="#4A95ED"/>
<path d="M677.098 156.888H683.977V159.792H677.098V156.888Z" fill="#C9C9C9"/>
<path d="M650.262 162.8H660.463V165.705H650.262V162.8Z" fill="#C6C6C6"/>
<path d="M661.824 162.8H665.841V165.705H661.824V162.8Z" fill="#C9C9C9"/>
<path d="M667.949 162.8H675.868V165.705H667.949V162.8ZM678.009 162.8H683.072V165.705H678.009V162.8ZM650.262 168.706H657.059V171.61H650.262V168.706Z" fill="#A9D1FC"/>
<path d="M659.271 168.706H666.068V171.61H659.271V168.706Z" fill="#C6C6C6"/>
<path d="M643.351 174.616H655.601V177.52H643.351V174.616Z" fill="#7F7F7F"/>
</g>
<defs>
<clipPath id="clip0">
<rect width="464" height="322" fill="white" transform="translate(230 56)"/>
</clipPath>
</defs>
</svg>
